<svg width="24" height="25" viewBox="0 0 24 25" fill="none" xmlns="http://www.w3.org/2000/svg">
<g clip-path="url(#clip0_3636_7970)">
<path d="M12.6133 12.8799L16.6907 21.7144C16.8062 21.9646 17.0563 22.1228 17.3289 22.1228C17.6414 22.1228 17.9145 21.9174 18.003 21.6205L23.999 1.49414L12.6133 12.8799Z" fill="white"/>
<path d="M2.78544 7.80833L11.6199 11.8858L23.0057 0.5L2.87933 6.49611C2.59902 6.57964 2.39966 6.82798 2.37875 7.11978C2.35789 7.41153 2.51985 7.68575 2.78544 7.80833Z" fill="white"/>
<path d="M6.12218 18.3778C5.84763 18.1032 5.40241 18.1032 5.12782 18.3778L1.37782 22.1278C1.10323 22.4024 1.10323 22.8476 1.37782 23.1222C1.65237 23.3968 2.09759 23.3968 2.37218 23.1222L6.12218 19.3722C6.39677 19.0976 6.39677 18.6524 6.12218 18.3778Z" fill="white"/>
<path d="M4.62218 16.3722C4.89677 16.0976 4.89677 15.6524 4.62218 15.3778C4.34763 15.1032 3.90241 15.1032 3.62782 15.3778L0.205945 18.7997C-0.0686484 19.0743 -0.0686484 19.5195 0.205945 19.7941C0.480492 20.0686 0.925711 20.0687 1.2003 19.7941L4.62218 16.3722Z" fill="white"/>
<path d="M8.12782 19.8779L4.70595 23.2997C4.43135 23.5743 4.43135 24.0195 4.70595 24.2941C4.98049 24.5687 5.42571 24.5687 5.7003 24.2941L9.12218 20.8722C9.39677 20.5976 9.39677 20.1524 9.12218 19.8779C8.84759 19.6032 8.40237 19.6032 8.12782 19.8779Z" fill="white"/>
<path d="M8.6405 12.0591L7.57124 16.0687C7.43267 16.5881 7.90742 17.069 8.43177 16.9293L12.4414 15.86L11.2411 13.2594L8.6405 12.0591Z" fill="white"/>
</g>
<defs>
<clipPath id="clip0_3636_7970">
<rect width="24" height="24" fill="white" transform="translate(0 0.5)"/>
</clipPath>
</defs>
</svg>
